<?xml version="1.0" encoding="UTF-8"?>
<svg version="1.1" xmlns="http://www.w3.org/2000/svg" width="64" height="64">
<path d="M0 0 C2.875 0.875 2.875 0.875 4.875 2.875 C5.12015697 5.37875468 5.24833658 7.78049479 5.2890625 10.2890625 C5.30842865 11.01870209 5.3277948 11.74834167 5.3477478 12.50009155 C5.40758422 14.83327502 5.45394423 17.16650773 5.5 19.5 C5.53817614 21.08075082 5.57722765 22.66148076 5.6171875 24.2421875 C5.71328878 28.1196223 5.79730412 31.99715449 5.875 35.875 C6.47054687 35.37613281 7.06609375 34.87726562 7.6796875 34.36328125 C9.875 32.875 9.875 32.875 13 33.0625 C15.875 33.875 15.875 33.875 17.875 35.875 C18.50390625 38.4453125 18.50390625 38.4453125 17.875 41.875 C15.51727124 45.17071662 12.70665955 47.92526198 9.8125 50.75 C9.06033203 51.53375 8.30816406 52.3175 7.53320312 53.125 C4.16717035 56.47063257 1.95463114 58.62585435 -2.73046875 59.70703125 C-7.19474453 58.61279564 -9.9020841 56.61542368 -13.375 53.6875 C-13.98601563 53.20474609 -14.59703125 52.72199219 -15.2265625 52.22460938 C-18.6093004 49.47336513 -21.3385476 46.95055682 -23.125 42.875 C-22.3125 39.5625 -22.3125 39.5625 -21.125 36.875 C-18 36.0625 -18 36.0625 -14.125 35.875 C-11.87074873 37.30872464 -10.11146273 39.06579952 -8.125 40.875 C-8.1156543 39.77510742 -8.10630859 38.67521484 -8.09667969 37.54199219 C-8.05677063 33.45645834 -7.99100996 29.37167681 -7.91748047 25.28662109 C-7.88927603 23.51946689 -7.86805882 21.75218666 -7.85400391 19.98486328 C-7.83256642 17.44237778 -7.78591497 14.90140662 -7.734375 12.359375 C-7.73314636 11.57069031 -7.73191772 10.78200562 -7.73065186 9.96942139 C-7.63557752 6.39922943 -7.4065379 4.26276735 -5.28222656 1.33691406 C-3.125 -0.125 -3.125 -0.125 0 0 Z " fill="#000000" transform="translate(33.125,2.125)"/>
</svg>
