<svg id="visual" viewBox="0 0 900 450" width="900" height="450" xmlns="http://www.w3.org/2000/svg" xmlns:xlink="http://www.w3.org/1999/xlink" version="1.1"><rect x="0" y="0" width="900" height="450" fill="#4e7869"></rect><g transform="translate(501.9218017669214 270.7534011900339)"><path d="M160.2 -236.1C175.8 -209.2 134.7 -119.8 153.1 -52.3C171.5 15.2 249.3 60.7 248.5 86.2C247.7 111.6 168.2 116.9 113.7 131.2C59.2 145.4 29.6 168.7 -3.7 173.8C-37 179 -74.1 165.9 -132.1 152.8C-190.1 139.6 -269.1 126.4 -311.9 81C-354.7 35.5 -361.4 -42 -342 -114C-322.5 -185.9 -277 -252.2 -215.6 -264.3C-154.3 -276.4 -77.1 -234.2 -2.4 -230.8C72.3 -227.5 144.6 -263 160.2 -236.1" fill="#86a373"></path></g></svg>