<svg id="visual" viewBox="0 0 900 450" width="900" height="450" xmlns="http://www.w3.org/2000/svg" xmlns:xlink="http://www.w3.org/1999/xlink" version="1.1"><rect x="0" y="0" width="900" height="450" fill="#4e7869"></rect><g transform="translate(413.3709422331028 151.16813629893016)"><path d="M124.2 -144.8C171.6 -136.5 228 -114.5 250 -74.6C272 -34.8 259.6 22.8 221.9 51.4C184.1 80.1 121 79.9 79.8 115.7C38.6 151.4 19.3 223.2 -28.9 263C-77.1 302.9 -154.3 310.7 -178.4 269.4C-202.5 228 -173.5 137.5 -157.6 77C-141.7 16.6 -138.9 -13.8 -133.1 -46.8C-127.3 -79.9 -118.6 -115.6 -95.9 -131.9C-73.3 -148.2 -36.6 -145.1 0.9 -146.3C38.4 -147.5 76.8 -153 124.2 -144.8" fill="#86a373"></path></g></svg>