<svg id="visual" viewBox="0 0 900 200" width="900" height="200" xmlns="http://www.w3.org/2000/svg" xmlns:xlink="http://www.w3.org/1999/xlink" version="1.1"><rect x="0" y="0" width="900" height="200" fill="#0866bf"></rect><path d="M0 131L10 128C20 125 40 119 60 118.2C80 117.3 100 121.7 120 119.5C140 117.3 160 108.7 180 113.5C200 118.3 220 136.7 240 147C260 157.3 280 159.7 300 157.3C320 155 340 148 360 146.2C380 144.3 400 147.7 420 139.8C440 132 460 113 480 103.7C500 94.3 520 94.7 540 103.2C560 111.7 580 128.3 600 139.8C620 151.3 640 157.7 660 150.5C680 143.3 700 122.7 720 117.8C740 113 760 124 780 126.3C800 128.7 820 122.3 840 117.3C860 112.3 880 108.7 890 106.8L900 105L900 0L890 0C880 0 860 0 840 0C820 0 800 0 780 0C760 0 740 0 720 0C700 0 680 0 660 0C640 0 620 0 600 0C580 0 560 0 540 0C520 0 500 0 480 0C460 0 440 0 420 0C400 0 380 0 360 0C340 0 320 0 300 0C280 0 260 0 240 0C220 0 200 0 180 0C160 0 140 0 120 0C100 0 80 0 60 0C40 0 20 0 10 0L0 0Z" fill="#008fbe"></path><path d="M0 105L10 103.2C20 101.3 40 97.7 60 95.5C80 93.3 100 92.7 120 89.5C140 86.3 160 80.7 180 79.2C200 77.7 220 80.3 240 84.2C260 88 280 93 300 98.8C320 104.7 340 111.3 360 108.8C380 106.3 400 94.7 420 88.2C440 81.7 460 80.3 480 80.3C500 80.3 520 81.7 540 80.8C560 80 580 77 600 75.2C620 73.3 640 72.7 660 81.2C680 89.7 700 107.3 720 116.3C740 125.3 760 125.7 780 123.8C800 122 820 118 840 115.7C860 113.3 880 112.7 890 112.3L900 112L900 0L890 0C880 0 860 0 840 0C820 0 800 0 780 0C760 0 740 0 720 0C700 0 680 0 660 0C640 0 620 0 600 0C580 0 560 0 540 0C520 0 500 0 480 0C460 0 440 0 420 0C400 0 380 0 360 0C340 0 320 0 300 0C280 0 260 0 240 0C220 0 200 0 180 0C160 0 140 0 120 0C100 0 80 0 60 0C40 0 20 0 10 0L0 0Z" fill="#0079c9"></path><path d="M0 92L10 91.7C20 91.3 40 90.7 60 85.7C80 80.7 100 71.3 120 66C140 60.7 160 59.3 180 63C200 66.7 220 75.3 240 79.3C260 83.3 280 82.7 300 82C320 81.3 340 80.7 360 74.5C380 68.3 400 56.7 420 54.7C440 52.7 460 60.3 480 61.8C500 63.3 520 58.7 540 61C560 63.3 580 72.7 600 75C620 77.3 640 72.7 660 73.8C680 75 700 82 720 78.8C740 75.7 760 62.3 780 55.3C800 48.3 820 47.7 840 51.8C860 56 880 65 890 69.5L900 74L900 0L890 0C880 0 860 0 840 0C820 0 800 0 780 0C760 0 740 0 720 0C700 0 680 0 660 0C640 0 620 0 600 0C580 0 560 0 540 0C520 0 500 0 480 0C460 0 440 0 420 0C400 0 380 0 360 0C340 0 320 0 300 0C280 0 260 0 240 0C220 0 200 0 180 0C160 0 140 0 120 0C100 0 80 0 60 0C40 0 20 0 10 0L0 0Z" fill="#005cc8"></path><path d="M0 47L10 45.2C20 43.3 40 39.7 60 36.2C80 32.7 100 29.3 120 28.7C140 28 160 30 180 35C200 40 220 48 240 47.5C260 47 280 38 300 34.7C320 31.3 340 33.7 360 38.2C380 42.7 400 49.3 420 52.2C440 55 460 54 480 49.2C500 44.3 520 35.7 540 36.5C560 37.3 580 47.7 600 48C620 48.3 640 38.7 660 34.7C680 30.7 700 32.3 720 35.8C740 39.3 760 44.7 780 42.8C800 41 820 32 840 27.5C860 23 880 23 890 23L900 23L900 0L890 0C880 0 860 0 840 0C820 0 800 0 780 0C760 0 740 0 720 0C700 0 680 0 660 0C640 0 620 0 600 0C580 0 560 0 540 0C520 0 500 0 480 0C460 0 440 0 420 0C400 0 380 0 360 0C340 0 320 0 300 0C280 0 260 0 240 0C220 0 200 0 180 0C160 0 140 0 120 0C100 0 80 0 60 0C40 0 20 0 10 0L0 0Z" fill="#1f38be"></path></svg>