<svg id="visual" viewBox="0 0 900 300" width="900" height="300" xmlns="http://www.w3.org/2000/svg" xmlns:xlink="http://www.w3.org/1999/xlink" version="1.1"><rect x="0" y="0" width="900" height="300" fill="#0866bf"></rect><path d="M0 107L10 106.5C20 106 40 105 60 115.8C80 126.7 100 149.3 120 151.5C140 153.7 160 135.3 180 128.7C200 122 220 127 240 131.2C260 135.3 280 138.7 300 136.3C320 134 340 126 360 125.5C380 125 400 132 420 136.2C440 140.3 460 141.7 480 146.3C500 151 520 159 540 157.7C560 156.3 580 145.7 600 140.8C620 136 640 137 660 134.5C680 132 700 126 720 122.8C740 119.7 760 119.3 780 122.2C800 125 820 131 840 127.8C860 124.7 880 112.3 890 106.2L900 100L900 0L890 0C880 0 860 0 840 0C820 0 800 0 780 0C760 0 740 0 720 0C700 0 680 0 660 0C640 0 620 0 600 0C580 0 560 0 540 0C520 0 500 0 480 0C460 0 440 0 420 0C400 0 380 0 360 0C340 0 320 0 300 0C280 0 260 0 240 0C220 0 200 0 180 0C160 0 140 0 120 0C100 0 80 0 60 0C40 0 20 0 10 0L0 0Z" fill="#008fbe"></path><path d="M0 126L10 121.7C20 117.3 40 108.7 60 109.7C80 110.7 100 121.3 120 119.5C140 117.7 160 103.3 180 95.3C200 87.3 220 85.7 240 86.8C260 88 280 92 300 98.2C320 104.3 340 112.7 360 109.2C380 105.7 400 90.3 420 82.7C440 75 460 75 480 77.3C500 79.7 520 84.3 540 89.3C560 94.3 580 99.7 600 101C620 102.3 640 99.7 660 104C680 108.3 700 119.7 720 125.8C740 132 760 133 780 126.3C800 119.7 820 105.3 840 99.7C860 94 880 97 890 98.5L900 100L900 0L890 0C880 0 860 0 840 0C820 0 800 0 780 0C760 0 740 0 720 0C700 0 680 0 660 0C640 0 620 0 600 0C580 0 560 0 540 0C520 0 500 0 480 0C460 0 440 0 420 0C400 0 380 0 360 0C340 0 320 0 300 0C280 0 260 0 240 0C220 0 200 0 180 0C160 0 140 0 120 0C100 0 80 0 60 0C40 0 20 0 10 0L0 0Z" fill="#0079c9"></path><path d="M0 88L10 85C20 82 40 76 60 70.3C80 64.7 100 59.3 120 63.5C140 67.7 160 81.3 180 81.7C200 82 220 69 240 62.5C260 56 280 56 300 55C320 54 340 52 360 54C380 56 400 62 420 65.7C440 69.3 460 70.7 480 73.7C500 76.7 520 81.3 540 78.8C560 76.3 580 66.7 600 61.3C620 56 640 55 660 57C680 59 700 64 720 65.5C740 67 760 65 780 64.3C800 63.7 820 64.3 840 61.8C860 59.3 880 53.7 890 50.8L900 48L900 0L890 0C880 0 860 0 840 0C820 0 800 0 780 0C760 0 740 0 720 0C700 0 680 0 660 0C640 0 620 0 600 0C580 0 560 0 540 0C520 0 500 0 480 0C460 0 440 0 420 0C400 0 380 0 360 0C340 0 320 0 300 0C280 0 260 0 240 0C220 0 200 0 180 0C160 0 140 0 120 0C100 0 80 0 60 0C40 0 20 0 10 0L0 0Z" fill="#005cc8"></path><path d="M0 51L10 49.7C20 48.3 40 45.7 60 41.5C80 37.3 100 31.7 120 29.7C140 27.7 160 29.3 180 34.2C200 39 220 47 240 45.5C260 44 280 33 300 33.2C320 33.3 340 44.7 360 47.8C380 51 400 46 420 41.2C440 36.3 460 31.7 480 29.8C500 28 520 29 540 32.5C560 36 580 42 600 44.5C620 47 640 46 660 45.2C680 44.3 700 43.7 720 40C740 36.3 760 29.7 780 26.8C800 24 820 25 840 26.8C860 28.7 880 31.3 890 32.7L900 34L900 0L890 0C880 0 860 0 840 0C820 0 800 0 780 0C760 0 740 0 720 0C700 0 680 0 660 0C640 0 620 0 600 0C580 0 560 0 540 0C520 0 500 0 480 0C460 0 440 0 420 0C400 0 380 0 360 0C340 0 320 0 300 0C280 0 260 0 240 0C220 0 200 0 180 0C160 0 140 0 120 0C100 0 80 0 60 0C40 0 20 0 10 0L0 0Z" fill="#1f38be"></path></svg>