<svg id="visual" viewBox="0 0 900 300" width="900" height="300" xmlns="http://www.w3.org/2000/svg" xmlns:xlink="http://www.w3.org/1999/xlink" version="1.1"><rect x="0" y="0" width="900" height="300" fill="#0866bf"></rect><path d="M0 135L10 135.8C20 136.7 40 138.3 60 134.2C80 130 100 120 120 124.7C140 129.3 160 148.7 180 153.5C200 158.3 220 148.7 240 148.7C260 148.7 280 158.3 300 156.8C320 155.3 340 142.7 360 133.8C380 125 400 120 420 118C440 116 460 117 480 118.8C500 120.7 520 123.3 540 131.8C560 140.3 580 154.7 600 158.3C620 162 640 155 660 150.2C680 145.3 700 142.7 720 142.2C740 141.7 760 143.3 780 144C800 144.7 820 144.3 840 144.2C860 144 880 144 890 144L900 144L900 0L890 0C880 0 860 0 840 0C820 0 800 0 780 0C760 0 740 0 720 0C700 0 680 0 660 0C640 0 620 0 600 0C580 0 560 0 540 0C520 0 500 0 480 0C460 0 440 0 420 0C400 0 380 0 360 0C340 0 320 0 300 0C280 0 260 0 240 0C220 0 200 0 180 0C160 0 140 0 120 0C100 0 80 0 60 0C40 0 20 0 10 0L0 0Z" fill="#4aa6a0"></path><path d="M0 76L10 78.3C20 80.7 40 85.3 60 93.3C80 101.3 100 112.7 120 111C140 109.3 160 94.7 180 86.2C200 77.7 220 75.3 240 81.2C260 87 280 101 300 102.2C320 103.3 340 91.7 360 85.5C380 79.3 400 78.7 420 87.3C440 96 460 114 480 116.2C500 118.3 520 104.7 540 97.2C560 89.7 580 88.3 600 94.7C620 101 640 115 660 120.7C680 126.3 700 123.7 720 119.2C740 114.7 760 108.3 780 106.2C800 104 820 106 840 103.7C860 101.3 880 94.7 890 91.3L900 88L900 0L890 0C880 0 860 0 840 0C820 0 800 0 780 0C760 0 740 0 720 0C700 0 680 0 660 0C640 0 620 0 600 0C580 0 560 0 540 0C520 0 500 0 480 0C460 0 440 0 420 0C400 0 380 0 360 0C340 0 320 0 300 0C280 0 260 0 240 0C220 0 200 0 180 0C160 0 140 0 120 0C100 0 80 0 60 0C40 0 20 0 10 0L0 0Z" fill="#008fbe"></path><path d="M0 77L10 76.7C20 76.3 40 75.7 60 75.7C80 75.7 100 76.3 120 77.3C140 78.3 160 79.7 180 80.8C200 82 220 83 240 82.3C260 81.7 280 79.3 300 79.2C320 79 340 81 360 79.5C380 78 400 73 420 72.7C440 72.3 460 76.7 480 75C500 73.3 520 65.7 540 62.3C560 59 580 60 600 59.3C620 58.7 640 56.3 660 57.7C680 59 700 64 720 65.3C740 66.7 760 64.3 780 67.8C800 71.3 820 80.7 840 86.3C860 92 880 94 890 95L900 96L900 0L890 0C880 0 860 0 840 0C820 0 800 0 780 0C760 0 740 0 720 0C700 0 680 0 660 0C640 0 620 0 600 0C580 0 560 0 540 0C520 0 500 0 480 0C460 0 440 0 420 0C400 0 380 0 360 0C340 0 320 0 300 0C280 0 260 0 240 0C220 0 200 0 180 0C160 0 140 0 120 0C100 0 80 0 60 0C40 0 20 0 10 0L0 0Z" fill="#006bc8"></path><path d="M0 60L10 56.7C20 53.3 40 46.7 60 40.2C80 33.7 100 27.3 120 25.5C140 23.7 160 26.3 180 29C200 31.7 220 34.3 240 36C260 37.7 280 38.3 300 37C320 35.7 340 32.3 360 35.8C380 39.3 400 49.7 420 54.7C440 59.7 460 59.3 480 59.5C500 59.7 520 60.3 540 58.3C560 56.3 580 51.7 600 47.5C620 43.3 640 39.7 660 35.8C680 32 700 28 720 31.7C740 35.3 760 46.7 780 51.7C800 56.7 820 55.3 840 49.2C860 43 880 32 890 26.5L900 21L900 0L890 0C880 0 860 0 840 0C820 0 800 0 780 0C760 0 740 0 720 0C700 0 680 0 660 0C640 0 620 0 600 0C580 0 560 0 540 0C520 0 500 0 480 0C460 0 440 0 420 0C400 0 380 0 360 0C340 0 320 0 300 0C280 0 260 0 240 0C220 0 200 0 180 0C160 0 140 0 120 0C100 0 80 0 60 0C40 0 20 0 10 0L0 0Z" fill="#1f38be"></path></svg>