<svg id="visual" viewBox="0 0 900 300" width="900" height="300" xmlns="http://www.w3.org/2000/svg" xmlns:xlink="http://www.w3.org/1999/xlink" version="1.1"><rect x="0" y="0" width="900" height="300" fill="#86a373"></rect><path d="M0 109L21.5 109.3C43 109.7 86 110.3 128.8 106.5C171.7 102.7 214.3 94.3 257.2 88.7C300 83 343 80 385.8 80.3C428.7 80.7 471.3 84.3 514.2 85.3C557 86.3 600 84.7 642.8 85.5C685.7 86.3 728.3 89.7 771.2 92C814 94.3 857 95.7 878.5 96.3L900 97L900 0L878.5 0C857 0 814 0 771.2 0C728.3 0 685.7 0 642.8 0C600 0 557 0 514.2 0C471.3 0 428.7 0 385.8 0C343 0 300 0 257.2 0C214.3 0 171.7 0 128.8 0C86 0 43 0 21.5 0L0 0Z" fill="#87624a"></path><path d="M0 91L21.5 88C43 85 86 79 128.8 76.3C171.7 73.7 214.3 74.3 257.2 77.3C300 80.3 343 85.7 385.8 86.5C428.7 87.3 471.3 83.7 514.2 80.8C557 78 600 76 642.8 77.3C685.7 78.7 728.3 83.3 771.2 87.7C814 92 857 96 878.5 98L900 100L900 0L878.5 0C857 0 814 0 771.2 0C728.3 0 685.7 0 642.8 0C600 0 557 0 514.2 0C471.3 0 428.7 0 385.8 0C343 0 300 0 257.2 0C214.3 0 171.7 0 128.8 0C86 0 43 0 21.5 0L0 0Z" fill="#805946"></path><path d="M0 68L21.5 65.3C43 62.7 86 57.3 128.8 59.2C171.7 61 214.3 70 257.2 73.5C300 77 343 75 385.8 70.7C428.7 66.3 471.3 59.7 514.2 59.8C557 60 600 67 642.8 66.5C685.7 66 728.3 58 771.2 55.2C814 52.3 857 54.7 878.5 55.8L900 57L900 0L878.5 0C857 0 814 0 771.2 0C728.3 0 685.7 0 642.8 0C600 0 557 0 514.2 0C471.3 0 428.7 0 385.8 0C343 0 300 0 257.2 0C214.3 0 171.7 0 128.8 0C86 0 43 0 21.5 0L0 0Z" fill="#785143"></path><path d="M0 42L21.5 41C43 40 86 38 128.8 36.2C171.7 34.3 214.3 32.7 257.2 31.3C300 30 343 29 385.8 33C428.7 37 471.3 46 514.2 47.7C557 49.3 600 43.7 642.8 44.2C685.7 44.7 728.3 51.3 771.2 50C814 48.7 857 39.3 878.5 34.7L900 30L900 0L878.5 0C857 0 814 0 771.2 0C728.3 0 685.7 0 642.8 0C600 0 557 0 514.2 0C471.3 0 428.7 0 385.8 0C343 0 300 0 257.2 0C214.3 0 171.7 0 128.8 0C86 0 43 0 21.5 0L0 0Z" fill="#704940"></path><path d="M0 20L21.5 20.8C43 21.7 86 23.3 128.8 23.8C171.7 24.3 214.3 23.7 257.2 24.7C300 25.7 343 28.3 385.8 28.2C428.7 28 471.3 25 514.2 25.2C557 25.3 600 28.7 642.8 30.7C685.7 32.7 728.3 33.3 771.2 32.8C814 32.3 857 30.7 878.5 29.8L900 29L900 0L878.5 0C857 0 814 0 771.2 0C728.3 0 685.7 0 642.8 0C600 0 557 0 514.2 0C471.3 0 428.7 0 385.8 0C343 0 300 0 257.2 0C214.3 0 171.7 0 128.8 0C86 0 43 0 21.5 0L0 0Z" fill="#68423d"></path></svg>