<svg id="visual" viewBox="0 0 900 300" width="900" height="300" xmlns="http://www.w3.org/2000/svg" xmlns:xlink="http://www.w3.org/1999/xlink" version="1.1"><rect x="0" y="0" width="900" height="300" fill="#0866bf"></rect><path d="M0 146L10 144.7C20 143.3 40 140.7 60 143.2C80 145.7 100 153.3 120 161.3C140 169.3 160 177.7 180 174.2C200 170.7 220 155.3 240 149.8C260 144.3 280 148.7 300 150.2C320 151.7 340 150.3 360 150.8C380 151.3 400 153.7 420 158.3C440 163 460 170 480 166.3C500 162.7 520 148.3 540 143C560 137.7 580 141.3 600 151.8C620 162.3 640 179.7 660 188C680 196.3 700 195.7 720 185C740 174.3 760 153.7 780 147.2C800 140.7 820 148.3 840 147.2C860 146 880 136 890 131L900 126L900 301L890 301C880 301 860 301 840 301C820 301 800 301 780 301C760 301 740 301 720 301C700 301 680 301 660 301C640 301 620 301 600 301C580 301 560 301 540 301C520 301 500 301 480 301C460 301 440 301 420 301C400 301 380 301 360 301C340 301 320 301 300 301C280 301 260 301 240 301C220 301 200 301 180 301C160 301 140 301 120 301C100 301 80 301 60 301C40 301 20 301 10 301L0 301Z" fill="#1f38be"></path><path d="M0 164L10 166.3C20 168.7 40 173.3 60 177.3C80 181.3 100 184.7 120 189C140 193.3 160 198.7 180 202.8C200 207 220 210 240 212.3C260 214.7 280 216.3 300 215.2C320 214 340 210 360 207.3C380 204.7 400 203.3 420 202C440 200.7 460 199.3 480 200.5C500 201.7 520 205.3 540 200.5C560 195.7 580 182.3 600 184.2C620 186 640 203 660 212C680 221 700 222 720 222.2C740 222.3 760 221.7 780 215C800 208.3 820 195.7 840 186.7C860 177.7 880 172.3 890 169.7L900 167L900 301L890 301C880 301 860 301 840 301C820 301 800 301 780 301C760 301 740 301 720 301C700 301 680 301 660 301C640 301 620 301 600 301C580 301 560 301 540 301C520 301 500 301 480 301C460 301 440 301 420 301C400 301 380 301 360 301C340 301 320 301 300 301C280 301 260 301 240 301C220 301 200 301 180 301C160 301 140 301 120 301C100 301 80 301 60 301C40 301 20 301 10 301L0 301Z" fill="#2927a2"></path><path d="M0 235L10 236.3C20 237.7 40 240.3 60 235.3C80 230.3 100 217.7 120 215.5C140 213.3 160 221.7 180 228.5C200 235.3 220 240.7 240 239.5C260 238.3 280 230.7 300 224.3C320 218 340 213 360 216.7C380 220.3 400 232.7 420 238.3C440 244 460 243 480 241.8C500 240.7 520 239.3 540 237.5C560 235.7 580 233.3 600 229.8C620 226.3 640 221.7 660 220.5C680 219.3 700 221.7 720 224.5C740 227.3 760 230.7 780 230C800 229.3 820 224.7 840 220.7C860 216.7 880 213.3 890 211.7L900 210L900 301L890 301C880 301 860 301 840 301C820 301 800 301 780 301C760 301 740 301 720 301C700 301 680 301 660 301C640 301 620 301 600 301C580 301 560 301 540 301C520 301 500 301 480 301C460 301 440 301 420 301C400 301 380 301 360 301C340 301 320 301 300 301C280 301 260 301 240 301C220 301 200 301 180 301C160 301 140 301 120 301C100 301 80 301 60 301C40 301 20 301 10 301L0 301Z" fill="#2b1786"></path><path d="M0 260L10 261.8C20 263.7 40 267.3 60 263.7C80 260 100 249 120 247.8C140 246.7 160 255.3 180 260.5C200 265.7 220 267.3 240 266.5C260 265.7 280 262.3 300 257.7C320 253 340 247 360 245.8C380 244.7 400 248.3 420 251C440 253.7 460 255.3 480 258.2C500 261 520 265 540 264.5C560 264 580 259 600 256C620 253 640 252 660 251.2C680 250.3 700 249.7 720 247.5C740 245.3 760 241.7 780 241.5C800 241.3 820 244.7 840 247.7C860 250.7 880 253.3 890 254.7L900 256L900 301L890 301C880 301 860 301 840 301C820 301 800 301 780 301C760 301 740 301 720 301C700 301 680 301 660 301C640 301 620 301 600 301C580 301 560 301 540 301C520 301 500 301 480 301C460 301 440 301 420 301C400 301 380 301 360 301C340 301 320 301 300 301C280 301 260 301 240 301C220 301 200 301 180 301C160 301 140 301 120 301C100 301 80 301 60 301C40 301 20 301 10 301L0 301Z" fill="#28046c"></path></svg>