<svg id="visual" viewBox="0 0 900 200" width="900" height="200" xmlns="http://www.w3.org/2000/svg" xmlns:xlink="http://www.w3.org/1999/xlink" version="1.1"><rect x="0" y="0" width="900" height="200" fill="#0866bf"></rect><path d="M0 102L10 96.7C20 91.3 40 80.7 60 79.8C80 79 100 88 120 92.2C140 96.3 160 95.7 180 86.2C200 76.7 220 58.3 240 51.2C260 44 280 48 300 57C320 66 340 80 360 85.3C380 90.7 400 87.3 420 83.8C440 80.3 460 76.7 480 75.2C500 73.7 520 74.3 540 74.7C560 75 580 75 600 70.2C620 65.3 640 55.7 660 56.5C680 57.3 700 68.7 720 67.7C740 66.7 760 53.3 780 46.5C800 39.7 820 39.3 840 40.3C860 41.3 880 43.7 890 44.8L900 46L900 201L890 201C880 201 860 201 840 201C820 201 800 201 780 201C760 201 740 201 720 201C700 201 680 201 660 201C640 201 620 201 600 201C580 201 560 201 540 201C520 201 500 201 480 201C460 201 440 201 420 201C400 201 380 201 360 201C340 201 320 201 300 201C280 201 260 201 240 201C220 201 200 201 180 201C160 201 140 201 120 201C100 201 80 201 60 201C40 201 20 201 10 201L0 201Z" fill="#1f38be"></path><path d="M0 124L10 120C20 116 40 108 60 104.5C80 101 100 102 120 106C140 110 160 117 180 115.8C200 114.7 220 105.3 240 104.7C260 104 280 112 300 112.2C320 112.3 340 104.7 360 98.7C380 92.7 400 88.3 420 88.8C440 89.3 460 94.7 480 96.2C500 97.7 520 95.3 540 95.7C560 96 580 99 600 101C620 103 640 104 660 102.2C680 100.3 700 95.7 720 93.3C740 91 760 91 780 93.7C800 96.3 820 101.7 840 99.7C860 97.7 880 88.3 890 83.7L900 79L900 201L890 201C880 201 860 201 840 201C820 201 800 201 780 201C760 201 740 201 720 201C700 201 680 201 660 201C640 201 620 201 600 201C580 201 560 201 540 201C520 201 500 201 480 201C460 201 440 201 420 201C400 201 380 201 360 201C340 201 320 201 300 201C280 201 260 201 240 201C220 201 200 201 180 201C160 201 140 201 120 201C100 201 80 201 60 201C40 201 20 201 10 201L0 201Z" fill="#2927a2"></path><path d="M0 122L10 122.7C20 123.3 40 124.7 60 124.3C80 124 100 122 120 121.2C140 120.3 160 120.7 180 123.8C200 127 220 133 240 134C260 135 280 131 300 133.3C320 135.7 340 144.3 360 143.8C380 143.3 400 133.7 420 127.7C440 121.7 460 119.3 480 124.2C500 129 520 141 540 146.5C560 152 580 151 600 148.8C620 146.7 640 143.3 660 138.2C680 133 700 126 720 124.7C740 123.3 760 127.7 780 129C800 130.3 820 128.7 840 127.5C860 126.3 880 125.7 890 125.3L900 125L900 201L890 201C880 201 860 201 840 201C820 201 800 201 780 201C760 201 740 201 720 201C700 201 680 201 660 201C640 201 620 201 600 201C580 201 560 201 540 201C520 201 500 201 480 201C460 201 440 201 420 201C400 201 380 201 360 201C340 201 320 201 300 201C280 201 260 201 240 201C220 201 200 201 180 201C160 201 140 201 120 201C100 201 80 201 60 201C40 201 20 201 10 201L0 201Z" fill="#2b1786"></path><path d="M0 168L10 166.8C20 165.7 40 163.3 60 163.3C80 163.3 100 165.7 120 163.3C140 161 160 154 180 152C200 150 220 153 240 155.8C260 158.7 280 161.3 300 158.5C320 155.7 340 147.3 360 149.5C380 151.7 400 164.3 420 164.8C440 165.3 460 153.7 480 151.2C500 148.7 520 155.3 540 157.3C560 159.3 580 156.7 600 153.7C620 150.7 640 147.3 660 146.7C680 146 700 148 720 148.7C740 149.3 760 148.7 780 148C800 147.3 820 146.7 840 151.8C860 157 880 168 890 173.5L900 179L900 201L890 201C880 201 860 201 840 201C820 201 800 201 780 201C760 201 740 201 720 201C700 201 680 201 660 201C640 201 620 201 600 201C580 201 560 201 540 201C520 201 500 201 480 201C460 201 440 201 420 201C400 201 380 201 360 201C340 201 320 201 300 201C280 201 260 201 240 201C220 201 200 201 180 201C160 201 140 201 120 201C100 201 80 201 60 201C40 201 20 201 10 201L0 201Z" fill="#28046c"></path></svg>