<svg id="visual" viewBox="0 0 900 300" width="900" height="300" xmlns="http://www.w3.org/2000/svg" xmlns:xlink="http://www.w3.org/1999/xlink" version="1.1"><rect x="0" y="0" width="900" height="300" fill="#4e7869"></rect><path d="M0 214L21.5 210.7C43 207.3 86 200.7 128.8 194.2C171.7 187.7 214.3 181.3 257.2 179.3C300 177.3 343 179.7 385.8 179.8C428.7 180 471.3 178 514.2 177C557 176 600 176 642.8 181.2C685.7 186.3 728.3 196.7 771.2 200C814 203.3 857 199.7 878.5 197.8L900 196L900 301L878.5 301C857 301 814 301 771.2 301C728.3 301 685.7 301 642.8 301C600 301 557 301 514.2 301C471.3 301 428.7 301 385.8 301C343 301 300 301 257.2 301C214.3 301 171.7 301 128.8 301C86 301 43 301 21.5 301L0 301Z" fill="#87624a"></path><path d="M0 204L21.5 209.3C43 214.7 86 225.3 128.8 224.2C171.7 223 214.3 210 257.2 203.8C300 197.7 343 198.3 385.8 203.3C428.7 208.3 471.3 217.7 514.2 219.8C557 222 600 217 642.8 212C685.7 207 728.3 202 771.2 199.7C814 197.3 857 197.7 878.5 197.8L900 198L900 301L878.5 301C857 301 814 301 771.2 301C728.3 301 685.7 301 642.8 301C600 301 557 301 514.2 301C471.3 301 428.7 301 385.8 301C343 301 300 301 257.2 301C214.3 301 171.7 301 128.8 301C86 301 43 301 21.5 301L0 301Z" fill="#805946"></path><path d="M0 249L21.5 244.5C43 240 86 231 128.8 230.5C171.7 230 214.3 238 257.2 241C300 244 343 242 385.8 239.7C428.7 237.3 471.3 234.7 514.2 232.5C557 230.3 600 228.7 642.8 232.5C685.7 236.3 728.3 245.7 771.2 245C814 244.3 857 233.7 878.5 228.3L900 223L900 301L878.5 301C857 301 814 301 771.2 301C728.3 301 685.7 301 642.8 301C600 301 557 301 514.2 301C471.3 301 428.7 301 385.8 301C343 301 300 301 257.2 301C214.3 301 171.7 301 128.8 301C86 301 43 301 21.5 301L0 301Z" fill="#785143"></path><path d="M0 254L21.5 255.7C43 257.3 86 260.7 128.8 262C171.7 263.3 214.3 262.7 257.2 262.8C300 263 343 264 385.8 263C428.7 262 471.3 259 514.2 255.8C557 252.7 600 249.3 642.8 251C685.7 252.7 728.3 259.3 771.2 258.8C814 258.3 857 250.7 878.5 246.8L900 243L900 301L878.5 301C857 301 814 301 771.2 301C728.3 301 685.7 301 642.8 301C600 301 557 301 514.2 301C471.3 301 428.7 301 385.8 301C343 301 300 301 257.2 301C214.3 301 171.7 301 128.8 301C86 301 43 301 21.5 301L0 301Z" fill="#704940"></path><path d="M0 278L21.5 278C43 278 86 278 128.8 278.8C171.7 279.7 214.3 281.3 257.2 281.2C300 281 343 279 385.8 278.3C428.7 277.7 471.3 278.3 514.2 276.8C557 275.3 600 271.7 642.8 271.5C685.7 271.3 728.3 274.7 771.2 276C814 277.3 857 276.7 878.5 276.3L900 276L900 301L878.5 301C857 301 814 301 771.2 301C728.3 301 685.7 301 642.8 301C600 301 557 301 514.2 301C471.3 301 428.7 301 385.8 301C343 301 300 301 257.2 301C214.3 301 171.7 301 128.8 301C86 301 43 301 21.5 301L0 301Z" fill="#68423d"></path></svg>