<svg id="visual" viewBox="0 0 900 200" width="900" height="200" xmlns="http://www.w3.org/2000/svg" xmlns:xlink="http://www.w3.org/1999/xlink" version="1.1"><rect x="0" y="0" width="900" height="200" fill="#28046c"></rect><path d="M0 57L10 64.3C20 71.7 40 86.3 60 83.8C80 81.3 100 61.7 120 58C140 54.3 160 66.7 180 72C200 77.3 220 75.7 240 74.2C260 72.7 280 71.3 300 72C320 72.7 340 75.3 360 75C380 74.7 400 71.3 420 73.3C440 75.3 460 82.7 480 87.5C500 92.3 520 94.7 540 89.5C560 84.3 580 71.7 600 69.5C620 67.3 640 75.7 660 74C680 72.3 700 60.7 720 56.8C740 53 760 57 780 55.8C800 54.7 820 48.3 840 51.7C860 55 880 68 890 74.5L900 81L900 201L890 201C880 201 860 201 840 201C820 201 800 201 780 201C760 201 740 201 720 201C700 201 680 201 660 201C640 201 620 201 600 201C580 201 560 201 540 201C520 201 500 201 480 201C460 201 440 201 420 201C400 201 380 201 360 201C340 201 320 201 300 201C280 201 260 201 240 201C220 201 200 201 180 201C160 201 140 201 120 201C100 201 80 201 60 201C40 201 20 201 10 201L0 201Z" fill="#0763c0"></path><path d="M0 75L10 74.7C20 74.3 40 73.7 60 81.8C80 90 100 107 120 114.3C140 121.7 160 119.3 180 120.2C200 121 220 125 240 125C260 125 280 121 300 120.7C320 120.3 340 123.7 360 125.5C380 127.3 400 127.7 420 126.5C440 125.3 460 122.7 480 115C500 107.3 520 94.7 540 95.2C560 95.7 580 109.3 600 116.3C620 123.3 640 123.7 660 116.7C680 109.7 700 95.3 720 93.5C740 91.7 760 102.3 780 108.2C800 114 820 115 840 112.8C860 110.7 880 105.3 890 102.7L900 100L900 201L890 201C880 201 860 201 840 201C820 201 800 201 780 201C760 201 740 201 720 201C700 201 680 201 660 201C640 201 620 201 600 201C580 201 560 201 540 201C520 201 500 201 480 201C460 201 440 201 420 201C400 201 380 201 360 201C340 201 320 201 300 201C280 201 260 201 240 201C220 201 200 201 180 201C160 201 140 201 120 201C100 201 80 201 60 201C40 201 20 201 10 201L0 201Z" fill="#0076bc"></path><path d="M0 147L10 142.5C20 138 40 129 60 125.7C80 122.3 100 124.7 120 122.7C140 120.7 160 114.3 180 117.7C200 121 220 134 240 135.7C260 137.3 280 127.7 300 127.2C320 126.7 340 135.3 360 133.2C380 131 400 118 420 117.2C440 116.3 460 127.7 480 130.2C500 132.7 520 126.3 540 121.7C560 117 580 114 600 117.8C620 121.7 640 132.3 660 139C680 145.7 700 148.3 720 145C740 141.7 760 132.3 780 126C800 119.7 820 116.3 840 116.5C860 116.7 880 120.3 890 122.2L900 124L900 201L890 201C880 201 860 201 840 201C820 201 800 201 780 201C760 201 740 201 720 201C700 201 680 201 660 201C640 201 620 201 600 201C580 201 560 201 540 201C520 201 500 201 480 201C460 201 440 201 420 201C400 201 380 201 360 201C340 201 320 201 300 201C280 201 260 201 240 201C220 201 200 201 180 201C160 201 140 201 120 201C100 201 80 201 60 201C40 201 20 201 10 201L0 201Z" fill="#0085b3"></path><path d="M0 159L10 160.5C20 162 40 165 60 163.5C80 162 100 156 120 151.8C140 147.7 160 145.3 180 144.8C200 144.3 220 145.7 240 146C260 146.3 280 145.7 300 146.2C320 146.7 340 148.3 360 151.2C380 154 400 158 420 161.5C440 165 460 168 480 170.2C500 172.3 520 173.7 540 170.5C560 167.3 580 159.7 600 154.5C620 149.3 640 146.7 660 148.2C680 149.7 700 155.3 720 155.8C740 156.3 760 151.7 780 154.3C800 157 820 167 840 170.2C860 173.3 880 169.7 890 167.8L900 166L900 201L890 201C880 201 860 201 840 201C820 201 800 201 780 201C760 201 740 201 720 201C700 201 680 201 660 201C640 201 620 201 600 201C580 201 560 201 540 201C520 201 500 201 480 201C460 201 440 201 420 201C400 201 380 201 360 201C340 201 320 201 300 201C280 201 260 201 240 201C220 201 200 201 180 201C160 201 140 201 120 201C100 201 80 201 60 201C40 201 20 201 10 201L0 201Z" fill="#2b91a4"></path></svg>