<svg id="visual" viewBox="0 0 900 300" width="900" height="300" xmlns="http://www.w3.org/2000/svg" xmlns:xlink="http://www.w3.org/1999/xlink" version="1.1"><rect x="0" y="0" width="900" height="300" fill="#28046c"></rect><path d="M0 154L10 155.5C20 157 40 160 60 161C80 162 100 161 120 161.7C140 162.3 160 164.7 180 170.8C200 177 220 187 240 188.2C260 189.3 280 181.7 300 177.3C320 173 340 172 360 175.7C380 179.3 400 187.7 420 183.5C440 179.3 460 162.7 480 161.2C500 159.7 520 173.3 540 174.5C560 175.7 580 164.3 600 162.8C620 161.3 640 169.7 660 176.2C680 182.7 700 187.3 720 189.5C740 191.7 760 191.3 780 181.2C800 171 820 151 840 142.5C860 134 880 137 890 138.5L900 140L900 301L890 301C880 301 860 301 840 301C820 301 800 301 780 301C760 301 740 301 720 301C700 301 680 301 660 301C640 301 620 301 600 301C580 301 560 301 540 301C520 301 500 301 480 301C460 301 440 301 420 301C400 301 380 301 360 301C340 301 320 301 300 301C280 301 260 301 240 301C220 301 200 301 180 301C160 301 140 301 120 301C100 301 80 301 60 301C40 301 20 301 10 301L0 301Z" fill="#0763c0"></path><path d="M0 216L10 215.5C20 215 40 214 60 214.5C80 215 100 217 120 209.7C140 202.3 160 185.7 180 181.2C200 176.7 220 184.3 240 184.3C260 184.3 280 176.7 300 177.5C320 178.3 340 187.7 360 194.8C380 202 400 207 420 208.5C440 210 460 208 480 210.2C500 212.3 520 218.7 540 212.8C560 207 580 189 600 185.5C620 182 640 193 660 198.8C680 204.7 700 205.3 720 206.7C740 208 760 210 780 208.8C800 207.7 820 203.3 840 200.3C860 197.3 880 195.7 890 194.8L900 194L900 301L890 301C880 301 860 301 840 301C820 301 800 301 780 301C760 301 740 301 720 301C700 301 680 301 660 301C640 301 620 301 600 301C580 301 560 301 540 301C520 301 500 301 480 301C460 301 440 301 420 301C400 301 380 301 360 301C340 301 320 301 300 301C280 301 260 301 240 301C220 301 200 301 180 301C160 301 140 301 120 301C100 301 80 301 60 301C40 301 20 301 10 301L0 301Z" fill="#0076bc"></path><path d="M0 205L10 209.2C20 213.3 40 221.7 60 224.8C80 228 100 226 120 222.7C140 219.3 160 214.7 180 216.7C200 218.7 220 227.3 240 227C260 226.7 280 217.3 300 215.3C320 213.3 340 218.7 360 219C380 219.3 400 214.7 420 213.8C440 213 460 216 480 222.5C500 229 520 239 540 242.3C560 245.7 580 242.3 600 237.5C620 232.7 640 226.3 660 223C680 219.7 700 219.3 720 219.2C740 219 760 219 780 219.7C800 220.3 820 221.7 840 227C860 232.3 880 241.7 890 246.3L900 251L900 301L890 301C880 301 860 301 840 301C820 301 800 301 780 301C760 301 740 301 720 301C700 301 680 301 660 301C640 301 620 301 600 301C580 301 560 301 540 301C520 301 500 301 480 301C460 301 440 301 420 301C400 301 380 301 360 301C340 301 320 301 300 301C280 301 260 301 240 301C220 301 200 301 180 301C160 301 140 301 120 301C100 301 80 301 60 301C40 301 20 301 10 301L0 301Z" fill="#0085b3"></path><path d="M0 254L10 256.3C20 258.7 40 263.3 60 265.8C80 268.3 100 268.7 120 263.7C140 258.7 160 248.3 180 245.8C200 243.3 220 248.7 240 254C260 259.3 280 264.7 300 266.2C320 267.7 340 265.3 360 264.3C380 263.3 400 263.7 420 259.7C440 255.7 460 247.3 480 243C500 238.7 520 238.3 540 240.3C560 242.3 580 246.7 600 251C620 255.3 640 259.7 660 259.3C680 259 700 254 720 252C740 250 760 251 780 253.8C800 256.7 820 261.3 840 261.2C860 261 880 256 890 253.5L900 251L900 301L890 301C880 301 860 301 840 301C820 301 800 301 780 301C760 301 740 301 720 301C700 301 680 301 660 301C640 301 620 301 600 301C580 301 560 301 540 301C520 301 500 301 480 301C460 301 440 301 420 301C400 301 380 301 360 301C340 301 320 301 300 301C280 301 260 301 240 301C220 301 200 301 180 301C160 301 140 301 120 301C100 301 80 301 60 301C40 301 20 301 10 301L0 301Z" fill="#2b91a4"></path></svg>