<svg id="visual" viewBox="0 0 900 200" width="900" height="200" xmlns="http://www.w3.org/2000/svg" xmlns:xlink="http://www.w3.org/1999/xlink" version="1.1"><rect x="0" y="0" width="900" height="200" fill="#4e7869"></rect><path d="M0 35L10 39.2C20 43.3 40 51.7 60 53.2C80 54.7 100 49.3 120 48.8C140 48.3 160 52.7 180 55.8C200 59 220 61 240 60C260 59 280 55 300 55.8C320 56.7 340 62.3 360 67.3C380 72.3 400 76.7 420 73.2C440 69.7 460 58.3 480 61.5C500 64.7 520 82.3 540 83.2C560 84 580 68 600 62.2C620 56.3 640 60.7 660 60.3C680 60 700 55 720 60.8C740 66.7 760 83.3 780 89.3C800 95.3 820 90.7 840 81.8C860 73 880 60 890 53.5L900 47L900 201L890 201C880 201 860 201 840 201C820 201 800 201 780 201C760 201 740 201 720 201C700 201 680 201 660 201C640 201 620 201 600 201C580 201 560 201 540 201C520 201 500 201 480 201C460 201 440 201 420 201C400 201 380 201 360 201C340 201 320 201 300 201C280 201 260 201 240 201C220 201 200 201 180 201C160 201 140 201 120 201C100 201 80 201 60 201C40 201 20 201 10 201L0 201Z" fill="#94c790"></path><path d="M0 71L10 79.7C20 88.3 40 105.7 60 113.2C80 120.7 100 118.3 120 113.7C140 109 160 102 180 103.2C200 104.3 220 113.7 240 115.5C260 117.3 280 111.7 300 103.2C320 94.7 340 83.3 360 81.2C380 79 400 86 420 89C440 92 460 91 480 90.8C500 90.7 520 91.3 540 97.5C560 103.7 580 115.3 600 119.5C620 123.7 640 120.3 660 118.7C680 117 700 117 720 110.2C740 103.3 760 89.7 780 88.2C800 86.7 820 97.3 840 100.5C860 103.7 880 99.3 890 97.2L900 95L900 201L890 201C880 201 860 201 840 201C820 201 800 201 780 201C760 201 740 201 720 201C700 201 680 201 660 201C640 201 620 201 600 201C580 201 560 201 540 201C520 201 500 201 480 201C460 201 440 201 420 201C400 201 380 201 360 201C340 201 320 201 300 201C280 201 260 201 240 201C220 201 200 201 180 201C160 201 140 201 120 201C100 201 80 201 60 201C40 201 20 201 10 201L0 201Z" fill="#00abb6"></path><path d="M0 140L10 136.5C20 133 40 126 60 122.2C80 118.3 100 117.7 120 123.2C140 128.7 160 140.3 180 146.2C200 152 220 152 240 149.2C260 146.3 280 140.7 300 133C320 125.3 340 115.7 360 115.5C380 115.3 400 124.7 420 131.5C440 138.3 460 142.7 480 141.2C500 139.7 520 132.3 540 127.5C560 122.7 580 120.3 600 118.3C620 116.3 640 114.7 660 115.5C680 116.3 700 119.7 720 123.2C740 126.7 760 130.3 780 130.5C800 130.7 820 127.3 840 126.7C860 126 880 128 890 129L900 130L900 201L890 201C880 201 860 201 840 201C820 201 800 201 780 201C760 201 740 201 720 201C700 201 680 201 660 201C640 201 620 201 600 201C580 201 560 201 540 201C520 201 500 201 480 201C460 201 440 201 420 201C400 201 380 201 360 201C340 201 320 201 300 201C280 201 260 201 240 201C220 201 200 201 180 201C160 201 140 201 120 201C100 201 80 201 60 201C40 201 20 201 10 201L0 201Z" fill="#007dcb"></path><path d="M0 140L10 144.7C20 149.3 40 158.7 60 162C80 165.3 100 162.7 120 158C140 153.3 160 146.7 180 149.2C200 151.7 220 163.3 240 163.7C260 164 280 153 300 147.2C320 141.3 340 140.7 360 142.8C380 145 400 150 420 152.7C440 155.3 460 155.7 480 154.8C500 154 520 152 540 150.2C560 148.3 580 146.7 600 146.2C620 145.7 640 146.3 660 151.7C680 157 700 167 720 166.5C740 166 760 155 780 154C800 153 820 162 840 162.3C860 162.7 880 154.3 890 150.2L900 146L900 201L890 201C880 201 860 201 840 201C820 201 800 201 780 201C760 201 740 201 720 201C700 201 680 201 660 201C640 201 620 201 600 201C580 201 560 201 540 201C520 201 500 201 480 201C460 201 440 201 420 201C400 201 380 201 360 201C340 201 320 201 300 201C280 201 260 201 240 201C220 201 200 201 180 201C160 201 140 201 120 201C100 201 80 201 60 201C40 201 20 201 10 201L0 201Z" fill="#1f38be"></path></svg>