<svg id="visual" viewBox="0 0 900 300" width="900" height="300" xmlns="http://www.w3.org/2000/svg" xmlns:xlink="http://www.w3.org/1999/xlink" version="1.1"><rect x="0" y="0" width="900" height="300" fill="#4e7869"></rect><path d="M0 173L10 170.3C20 167.7 40 162.3 60 164.8C80 167.3 100 177.7 120 178C140 178.3 160 168.7 180 166.5C200 164.3 220 169.7 240 175C260 180.3 280 185.7 300 188.3C320 191 340 191 360 191.8C380 192.7 400 194.3 420 189.3C440 184.3 460 172.7 480 171.5C500 170.3 520 179.7 540 184.8C560 190 580 191 600 185.5C620 180 640 168 660 166.2C680 164.3 700 172.7 720 178.7C740 184.7 760 188.3 780 185.7C800 183 820 174 840 174.8C860 175.7 880 186.3 890 191.7L900 197L900 301L890 301C880 301 860 301 840 301C820 301 800 301 780 301C760 301 740 301 720 301C700 301 680 301 660 301C640 301 620 301 600 301C580 301 560 301 540 301C520 301 500 301 480 301C460 301 440 301 420 301C400 301 380 301 360 301C340 301 320 301 300 301C280 301 260 301 240 301C220 301 200 301 180 301C160 301 140 301 120 301C100 301 80 301 60 301C40 301 20 301 10 301L0 301Z" fill="#94c790"></path><path d="M0 164L10 165.2C20 166.3 40 168.7 60 174.2C80 179.7 100 188.3 120 195.5C140 202.7 160 208.3 180 208.8C200 209.3 220 204.7 240 202.8C260 201 280 202 300 200.5C320 199 340 195 360 195.7C380 196.3 400 201.7 420 199C440 196.3 460 185.7 480 185.3C500 185 520 195 540 202.7C560 210.3 580 215.7 600 215.5C620 215.3 640 209.7 660 204C680 198.3 700 192.7 720 193.7C740 194.7 760 202.3 780 206.3C800 210.3 820 210.7 840 210.2C860 209.7 880 208.3 890 207.7L900 207L900 301L890 301C880 301 860 301 840 301C820 301 800 301 780 301C760 301 740 301 720 301C700 301 680 301 660 301C640 301 620 301 600 301C580 301 560 301 540 301C520 301 500 301 480 301C460 301 440 301 420 301C400 301 380 301 360 301C340 301 320 301 300 301C280 301 260 301 240 301C220 301 200 301 180 301C160 301 140 301 120 301C100 301 80 301 60 301C40 301 20 301 10 301L0 301Z" fill="#00abb6"></path><path d="M0 244L10 243.3C20 242.7 40 241.3 60 235.7C80 230 100 220 120 215.8C140 211.7 160 213.3 180 215.8C200 218.3 220 221.7 240 227.7C260 233.7 280 242.3 300 243.7C320 245 340 239 360 235.7C380 232.3 400 231.7 420 234C440 236.3 460 241.7 480 238.5C500 235.3 520 223.7 540 218.7C560 213.7 580 215.3 600 214C620 212.7 640 208.3 660 213C680 217.7 700 231.3 720 236C740 240.7 760 236.3 780 235.8C800 235.3 820 238.7 840 241.7C860 244.7 880 247.3 890 248.7L900 250L900 301L890 301C880 301 860 301 840 301C820 301 800 301 780 301C760 301 740 301 720 301C700 301 680 301 660 301C640 301 620 301 600 301C580 301 560 301 540 301C520 301 500 301 480 301C460 301 440 301 420 301C400 301 380 301 360 301C340 301 320 301 300 301C280 301 260 301 240 301C220 301 200 301 180 301C160 301 140 301 120 301C100 301 80 301 60 301C40 301 20 301 10 301L0 301Z" fill="#007dcb"></path><path d="M0 241L10 246.7C20 252.3 40 263.7 60 264.8C80 266 100 257 120 252.7C140 248.3 160 248.7 180 249C200 249.3 220 249.7 240 248.2C260 246.7 280 243.3 300 242.2C320 241 340 242 360 246C380 250 400 257 420 256C440 255 460 246 480 248C500 250 520 263 540 265.2C560 267.3 580 258.7 600 252.3C620 246 640 242 660 246.5C680 251 700 264 720 264.7C740 265.3 760 253.7 780 247.7C800 241.7 820 241.3 840 246C860 250.7 880 260.3 890 265.2L900 270L900 301L890 301C880 301 860 301 840 301C820 301 800 301 780 301C760 301 740 301 720 301C700 301 680 301 660 301C640 301 620 301 600 301C580 301 560 301 540 301C520 301 500 301 480 301C460 301 440 301 420 301C400 301 380 301 360 301C340 301 320 301 300 301C280 301 260 301 240 301C220 301 200 301 180 301C160 301 140 301 120 301C100 301 80 301 60 301C40 301 20 301 10 301L0 301Z" fill="#1f38be"></path></svg>